<?xml version="1.0" encoding="iso-8859-1"?>
<!-- Generator: Adobe Illustrator 19.1.0, SVG Export Plug-In . SVG Version: 6.00 Build 0)  -->
<svg version="1.1" id="Capa_1" xmlns="http://www.w3.org/2000/svg" xmlns:xlink="http://www.w3.org/1999/xlink" x="0px" y="0px"
	 viewBox="0 0 66.23 66.23" style="enable-background:new 0 0 66.23 66.23;" xml:space="preserve">
<g>
	<g id="group-10svg">
		<path id="path-1_1_" style="fill:#8B71B5;" d="M62.296,52.534h3v-10H20.141l1.92,10h3.235l0,0"/>
		<path id="path-2_1_" style="fill:#E56A77;" d="M20.141,42.534h36.487l9.602-20H15.241L20.141,42.534z"/>
		<path id="path-3_1_" style="fill:#EDC951;" d="M61.141,53.574c0,3.182-2.579,5.761-5.761,5.761c-3.182,0-5.761-2.579-5.761-5.761
			s2.579-5.761,5.761-5.761C58.562,47.813,61.141,50.392,61.141,53.574z"/>
		<path id="path-4_1_" style="fill:#EDC951;" d="M38.049,53.574c0,3.182-2.579,5.761-5.762,5.761c-3.181,0-5.761-2.579-5.761-5.761
			s2.58-5.761,5.761-5.761C35.47,47.813,38.049,50.392,38.049,53.574z"/>
		<path id="path-5_1_" d="M51.628,41.534H15.141c-0.691,0-1.293-0.472-1.457-1.143l-4.9-20c-0.11-0.448-0.008-0.92,0.276-1.283
			c0.285-0.362,0.72-0.574,1.181-0.574H61.23c0.516,0,0.995,0.265,1.27,0.701c0.274,0.437,0.305,0.983,0.082,1.448l-9.602,20
			C52.731,41.203,52.205,41.534,51.628,41.534z M16.318,38.534h34.366l8.162-17H12.153L16.318,38.534z"/>
		<path id="path-6_1_" d="M60.796,51.534h-3.5c-0.828,0-1.5-0.671-1.5-1.5s0.672-1.5,1.5-1.5h2v-7h-42.34l1.345,7h1.995
			c0.829,0,1.5,0.671,1.5,1.5s-0.671,1.5-1.5,1.5h-3.235c-0.719,0-1.337-0.511-1.473-1.217l-1.92-10
			c-0.085-0.44,0.032-0.894,0.317-1.238c0.284-0.345,0.709-0.545,1.156-0.545h45.655c0.829,0,1.5,0.671,1.5,1.5v10
			C62.296,50.863,61.625,51.534,60.796,51.534z"/>
		<path id="path-7_1_" d="M43.296,51.534h-10c-0.828,0-1.5-0.671-1.5-1.5s0.672-1.5,1.5-1.5h10c0.829,0,1.5,0.671,1.5,1.5
			S44.125,51.534,43.296,51.534z"/>
		<path id="path-8_1_" d="M50.38,58.835c-4.004,0-7.261-3.257-7.261-7.261s3.257-7.261,7.261-7.261s7.261,3.257,7.261,7.261
			S54.384,58.835,50.38,58.835z M50.38,47.313c-2.349,0-4.261,1.911-4.261,4.261c0,2.35,1.912,4.261,4.261,4.261
			c2.35,0,4.261-1.911,4.261-4.261C54.641,49.224,52.73,47.313,50.38,47.313z"/>
		<path id="path-9_1_" d="M27.287,58.835c-4.003,0-7.261-3.257-7.261-7.261s3.258-7.261,7.261-7.261
			c4.004,0,7.262,3.257,7.262,7.261S31.291,58.835,27.287,58.835z M27.287,47.313c-2.349,0-4.261,1.911-4.261,4.261
			c0,2.35,1.912,4.261,4.261,4.261c2.35,0,4.262-1.911,4.262-4.261C31.549,49.224,29.637,47.313,27.287,47.313z"/>
		<path id="path-10_1_" d="M17.06,51.114c-0.672,0-1.284-0.455-1.454-1.137L6.004,11.485c-0.03-0.119-0.045-0.241-0.045-0.363
			c0-0.665-0.674-1.227-1.471-1.227C3.653,9.895,3,10.585,3,11.467c0,0.542,0.266,1.042,0.711,1.337
			c0.69,0.459,0.878,1.39,0.42,2.08c-0.459,0.69-1.39,0.878-2.08,0.419C0.767,14.45,0,13.016,0,11.467
			c0-2.521,2.013-4.572,4.488-4.572c2.393,0,4.353,1.786,4.466,4.022l9.563,38.334c0.2,0.803-0.289,1.617-1.092,1.818
			C17.303,51.1,17.181,51.114,17.06,51.114z"/>
	</g>
</g>
<g>
</g>
<g>
</g>
<g>
</g>
<g>
</g>
<g>
</g>
<g>
</g>
<g>
</g>
<g>
</g>
<g>
</g>
<g>
</g>
<g>
</g>
<g>
</g>
<g>
</g>
<g>
</g>
<g>
</g>
</svg>
