<?xml version="1.0" ?><svg viewBox="0 0 48 48" xmlns="http://www.w3.org/2000/svg" xmlns:xlink="http://www.w3.org/1999/xlink"><defs><style>.cls-1{fill:url(#linear-gradient);}.cls-2{fill:url(#linear-gradient-2);}.cls-3{fill:url(#linear-gradient-3);}.cls-4{fill:url(#linear-gradient-4);}.cls-5{fill:url(#linear-gradient-5);}.cls-6{fill:url(#linear-gradient-6);}.cls-7{fill:url(#linear-gradient-7);}.cls-8{fill:url(#linear-gradient-8);}.cls-9{fill:url(#linear-gradient-9);}.cls-10{fill:url(#linear-gradient-10);}.cls-11{fill:url(#linear-gradient-11);}.cls-12{fill:url(#linear-gradient-12);}.cls-13{fill:url(#linear-gradient-13);}</style><linearGradient gradientUnits="userSpaceOnUse" id="linear-gradient" x1="23.85" x2="23.85" y1="22.1" y2="40.01"><stop offset="0.18" stop-color="#ffc308"/><stop offset="1" stop-color="#de9908"/></linearGradient><linearGradient gradientUnits="userSpaceOnUse" id="linear-gradient-2" x1="23.85" x2="23.85" y1="15.29" y2="22.38"><stop offset="0.18" stop-color="#e5ad00"/><stop offset="1" stop-color="#c68600"/></linearGradient><linearGradient id="linear-gradient-3" x1="23.77" x2="23.98" xlink:href="#linear-gradient" y1="15.77" y2="23.75"/><linearGradient id="linear-gradient-4" x1="15.35" x2="15.35" xlink:href="#linear-gradient" y1="37.24" y2="32.81"/><linearGradient id="linear-gradient-5" x1="21.35" x2="21.35" xlink:href="#linear-gradient" y1="37.24" y2="32.81"/><linearGradient id="linear-gradient-6" x1="27.35" x2="27.35" xlink:href="#linear-gradient" y1="37.24" y2="32.81"/><linearGradient id="linear-gradient-7" x1="33.35" x2="33.35" xlink:href="#linear-gradient" y1="37.24" y2="32.81"/><linearGradient gradientUnits="userSpaceOnUse" id="linear-gradient-8" x1="15.35" x2="15.35" y1="27.48" y2="36.15"><stop offset="0.18" stop-color="#8f6500"/><stop offset="1" stop-color="#774800"/></linearGradient><linearGradient id="linear-gradient-9" x1="21.35" x2="21.35" xlink:href="#linear-gradient-8" y1="27.48" y2="36.15"/><linearGradient id="linear-gradient-10" x1="27.35" x2="27.35" xlink:href="#linear-gradient-8" y1="27.48" y2="36.15"/><linearGradient id="linear-gradient-11" x1="33.35" x2="33.35" xlink:href="#linear-gradient-8" y1="27.48" y2="36.15"/><linearGradient gradientTransform="translate(-5.59 15.45) rotate(-45)" gradientUnits="userSpaceOnUse" id="linear-gradient-12" x1="14.74" x2="16.87" y1="13.36" y2="15.49"><stop offset="0" stop-color="#4d4d4d"/><stop offset="0.18" stop-color="gray"/><stop offset="1" stop-color="#4d4d4d"/></linearGradient><linearGradient gradientTransform="translate(44.14 47.23) rotate(-135)" id="linear-gradient-13" x1="32.92" x2="30.83" xlink:href="#linear-gradient-12" y1="13.41" y2="15.5"/></defs><title/><g id="icons"><g data-name="Layer 3" id="Layer_3"><path class="cls-1" d="M7.85,21.47h32a0,0,0,0,1,0,0v13a5,5,0,0,1-5,5h-22a5,5,0,0,1-5-5v-13A0,0,0,0,1,7.85,21.47Z"/><rect class="cls-2" height="2" width="32" x="7.85" y="21.47"/><rect class="cls-3" height="5" rx="2.5" ry="2.5" width="36" x="5.85" y="16.47"/><rect class="cls-4" height="9" rx="1.5" ry="1.5" width="3" x="13.85" y="27.47"/><rect class="cls-5" height="9" rx="1.5" ry="1.5" width="3" x="19.85" y="27.47"/><rect class="cls-6" height="9" rx="1.5" ry="1.5" width="3" x="25.85" y="27.47"/><rect class="cls-7" height="9" rx="1.5" ry="1.5" width="3" x="31.85" y="27.47"/><rect class="cls-8" height="9" rx="1.5" ry="1.5" width="3" x="13.85" y="26.47"/><rect class="cls-9" height="9" rx="1.5" ry="1.5" width="3" x="19.85" y="26.47"/><rect class="cls-10" height="9" rx="1.5" ry="1.5" width="3" x="25.85" y="26.47"/><rect class="cls-11" height="9" rx="1.5" ry="1.5" width="3" x="31.85" y="26.47"/><rect class="cls-12" height="15.59" rx="1.5" ry="1.5" transform="translate(14.88 -6.97) rotate(45)" width="3" x="14.35" y="6.68"/><rect class="cls-13" height="15.59" rx="1.5" ry="1.5" transform="translate(64.61 2.19) rotate(135)" width="3" x="30.35" y="6.68"/></g></g></svg>